# Blender 4.2.1 LTS
# www.blender.org
mtllib Door.mtl
o Cube
v -2.473520 0.000000 0.741538
v -2.473520 3.869446 0.741538
v -2.473520 0.000000 -0.741538
v -2.473520 3.869446 -0.741538
v 2.499515 0.000000 0.741538
v 2.499515 3.869446 0.741538
v 2.499515 0.000000 -0.741538
v 2.499515 3.869446 -0.741538
v -2.473520 0.000000 0.000000
v -2.473520 1.934723 0.741538
v -2.473520 3.869446 0.000000
v -2.473520 1.934723 -0.741538
v 0.012997 0.000000 -0.741538
v 0.012997 5.005984 -0.741538
v 2.499515 1.934723 -0.741538
v 2.499515 0.000000 0.000000
v 2.499515 3.869446 0.000000
v 2.499515 1.934723 0.741538
v 0.012997 0.000000 0.741538
v 0.012997 5.005984 0.741538
v 0.012997 5.005984 0.000000
v 0.012997 0.000000 0.000000
v 2.499515 1.934723 0.000000
v -2.473520 1.934723 0.000000
v -2.473520 0.000000 0.370769
v -2.473520 2.902085 0.741538
v 2.499515 1.209202 0.741538
v -2.473520 0.967362 -0.741538
v -1.230261 0.000000 -0.741538
v 2.499515 0.967362 -0.741538
v 2.499515 0.000000 -0.370769
v 2.499515 0.967362 0.741538
v 1.256256 0.000000 0.741538
v 2.499515 1.209202 -0.741538
v -2.473520 0.000000 -0.370769
v -2.473520 0.967362 0.741538
v 2.499515 1.692883 0.741538
v -2.473520 2.902085 -0.741538
v 1.256256 0.000000 -0.741538
v 2.499515 2.902085 -0.741538
v 2.499515 0.000000 0.370769
v 2.499515 2.902085 0.741538
v -1.230261 0.000000 0.741538
v 2.499515 1.451042 0.741538
v 0.012997 0.000000 0.370769
v 0.012997 0.000000 -0.370769
v -1.230261 0.000000 0.000000
v 1.256256 0.000000 0.000000
v 2.499515 1.934723 0.370769
v 2.499515 1.934723 -0.370769
v 2.499515 0.967362 0.000000
v 2.499515 2.902085 0.000000
v -2.473520 1.934723 -0.370769
v -2.473520 1.934723 0.370769
v -2.473520 0.967362 0.000000
v -2.473520 2.902085 0.000000
v -2.473520 2.902085 0.370769
v -2.473520 0.967362 0.370769
v -2.473520 0.967362 -0.370769
v 2.499515 2.902085 -0.370769
v 2.499515 0.967362 -0.370769
v 2.499515 0.967362 0.370769
v 1.256256 0.000000 -0.370769
v -1.230261 0.000000 -0.370769
v -1.230261 0.000000 0.370769
v 1.800182 1.451042 -0.770854
v 2.499515 1.451042 -0.741538
v 1.256256 0.000000 0.370769
v 2.499515 2.902085 0.370769
v -2.473520 2.902085 -0.370769
v 2.499515 1.692883 -0.741538
v 2.188700 1.209202 -0.741538
v 2.188700 1.692883 -0.741538
v 2.188700 1.209202 0.741538
v 2.188700 1.692883 0.741538
v 2.188700 1.330122 -0.741538
v 2.188700 1.571963 -0.741538
v 2.188700 1.330122 0.741538
v 2.188700 1.571963 0.741538
v 1.877885 1.511503 0.741538
v 1.955589 1.451042 0.741538
v 1.800182 1.451042 -0.741538
v 1.877885 1.511503 -0.741538
v 2.188700 1.269662 -0.741538
v 2.188700 1.511503 -0.741538
v 2.188700 1.269662 0.741538
v 2.188700 1.511503 0.741538
v 1.800182 1.451042 0.741538
v 1.955589 1.451042 -0.741538
v 1.877885 1.390582 0.741538
v 1.877885 1.390582 -0.741538
v 2.188700 1.390582 -0.741538
v 2.188700 1.632423 -0.741538
v 2.188700 1.390582 0.741538
v 2.188700 1.632423 0.741538
v 2.033293 1.511503 0.741538
v 2.033293 1.511503 -0.741538
v 2.033293 1.390582 -0.741538
v 2.033293 1.390582 0.741538
v 2.110996 1.390582 0.741538
v 1.955589 1.390582 -0.741538
v 1.800182 1.390582 0.741538
v 1.800182 1.511503 0.741538
v 1.800182 1.511503 -0.741538
v 1.955589 1.511503 -0.741538
v 2.110996 1.511503 -0.741538
v 2.110996 1.511503 0.741538
v 1.955589 1.511503 0.741538
v 1.800182 1.390582 -0.741538
v 2.110996 1.390582 -0.741538
v 1.955589 1.390582 0.741538
v 1.877885 1.511503 0.791561
v 1.877885 1.451042 0.791561
v 1.955589 1.451042 0.791561
v 1.800182 1.451042 0.791561
v 1.877885 1.390582 0.791561
v 1.800182 1.390582 0.791561
v 1.800182 1.511503 0.791561
v 1.955589 1.511503 0.791561
v 1.955589 1.390582 0.791561
v 1.877885 1.451042 -0.770854
v 1.877885 1.511503 -0.770854
v 1.955589 1.451042 -0.770854
v 1.877885 1.390582 -0.770854
v 1.955589 1.390582 -0.770854
v 1.800182 1.511503 -0.770854
v 1.955589 1.511503 -0.770854
v 1.800182 1.390582 -0.770854
vn 1.0000 -0.0000 -0.0000
vn -1.0000 -0.0000 -0.0000
vn -0.0000 -1.0000 -0.0000
vn -0.4157 0.9095 -0.0000
vn 0.4157 0.9095 -0.0000
vn -0.0000 -0.0000 -1.0000
vn -0.0000 1.0000 -0.0000
vn -0.0000 -0.0000 1.0000
vt 0.625000 0.750000
vt 0.562500 0.687500
vt 0.625000 0.625000
vt 0.625000 0.250000
vt 0.562500 0.187500
vt 0.875000 0.625000
vt 0.375000 0.687500
vt 0.312500 0.750000
vt 0.312500 0.687500
vt 0.625000 0.125000
vt 0.750000 0.750000
vt 0.750000 0.625000
vt 0.562500 0.625000
vt 0.750000 0.500000
vt 0.625000 0.375000
vt 0.250000 0.687500
vt 0.187500 0.750000
vt 0.187500 0.687500
vt 0.250000 0.562500
vt 0.187500 0.625000
vt 0.187500 0.562500
vt 0.375000 0.562500
vt 0.312500 0.625000
vt 0.312500 0.562500
vt 0.500000 0.687500
vt 0.468750 0.750000
vt 0.453125 0.750000
vt 0.500000 0.562500
vt 0.437500 0.625000
vt 0.437500 0.562500
vt 0.468750 0.777344
vt 0.464844 0.777344
vt 0.562500 0.062500
vt 0.875000 0.750000
vt 0.500000 0.187500
vt 0.437500 0.250000
vt 0.437500 0.187500
vt 0.500000 0.062500
vt 0.437500 0.125000
vt 0.437500 0.062500
vt 0.500000 0.125000
vt 0.562500 0.000000
vt 0.500000 0.000000
vt 0.375000 0.125000
vt 0.375000 0.062500
vt 0.437500 0.000000
vt 0.375000 0.000000
vt 0.375000 0.250000
vt 0.375000 0.187500
vt 0.562500 0.562500
vt 0.500000 0.625000
vt 0.562500 0.500000
vt 0.500000 0.500000
vt 0.375000 0.625000
vt 0.437500 0.500000
vt 0.375000 0.500000
vt 0.484375 0.500000
vt 0.437500 0.687500
vt 0.375000 0.750000
vt 0.250000 0.625000
vt 0.312500 0.500000
vt 0.250000 0.500000
vt 0.125000 0.625000
vt 0.125000 0.562500
vt 0.187500 0.500000
vt 0.125000 0.500000
vt 0.125000 0.750000
vt 0.125000 0.687500
vt 0.625000 0.875000
vt 0.625000 0.500000
vt 0.468750 0.464844
vt 0.464844 0.464844
vt 0.250000 0.750000
vt 0.625000 0.000000
vt 0.500000 0.750000
vt 0.562500 0.750000
vt 0.500000 0.250000
vt 0.562500 0.125000
vt 0.464844 0.468750
vt 0.375000 0.437500
vt 0.562500 0.250000
vt 0.472656 0.472656
vt 0.472656 0.468750
vt 0.468750 0.785156
vt 0.472656 0.785156
vt 0.464844 0.781250
vt 0.472656 0.464844
vt 0.464844 0.472656
vt 0.375000 0.812500
vt 0.472656 0.781250
vt 0.464844 0.484375
vt 0.472656 0.484375
vt 0.468750 0.500000
vt 0.468750 0.781250
vt 0.464844 0.785156
vt 0.472656 0.777344
vt 0.468750 0.468750
vt 0.468750 0.472656
vt 0.464844 0.773438
vt 0.625000 1.000000
vt 0.437500 0.750000
vt 0.484375 0.750000
vt 0.453125 0.500000
vt 0.875000 0.500000
vt 0.484375 0.484375
vt 0.375000 0.312500
vt 0.480469 0.484375
vt 0.375000 0.375000
vt 0.476562 0.484375
vt 0.472656 0.480469
vt 0.472656 0.476562
vt 0.453125 0.484375
vt 0.457031 0.484375
vt 0.464844 0.480469
vt 0.460938 0.484375
vt 0.464844 0.476562
vt 0.437500 1.000000
vt 0.375000 1.000000
vt 0.375000 0.937500
vt 0.375000 0.875000
vt 0.500000 1.000000
vt 0.562500 1.000000
vt 0.453125 0.765625
vt 0.484375 0.765625
vt 0.457031 0.765625
vt 0.460938 0.765625
vt 0.464844 0.765625
vt 0.464844 0.769531
vt 0.480469 0.765625
vt 0.476562 0.765625
vt 0.472656 0.769531
vt 0.472656 0.765625
vt 0.472656 0.773438
s 0
usemtl Material.001
f 81/31/1 120/32/1 111/32/1
f 82/71/2 128/72/2 109/72/2
f 105/82/7 122/83/7 83/83/7
f 88/84/2 118/85/2 103/85/2
f 111/32/3 116/86/3 90/86/3
f 83/83/7 126/87/7 104/87/7
f 91/79/3 125/88/3 101/88/3
f 103/85/7 112/90/7 80/90/7
f 114/31/8 116/86/8 120/32/8
f 113/94/8 117/95/8 116/86/8
f 112/90/8 115/84/8 113/94/8
f 119/96/8 113/94/8 114/31/8
f 108/96/1 114/31/1 81/31/1
f 102/95/2 115/84/2 88/84/2
f 80/90/7 119/96/7 108/96/7
f 90/86/3 117/95/3 102/95/3
f 66/71/6 124/79/6 128/72/6
f 121/97/6 125/88/6 124/79/6
f 126/87/6 121/97/6 66/71/6
f 122/83/6 123/98/6 121/97/6
f 89/98/1 127/82/1 105/82/1
f 109/72/3 124/79/3 91/79/3
f 101/88/1 123/98/1 89/98/1
f 104/87/2 66/71/2 82/71/2
f 81/31/1 114/31/1 120/32/1
f 82/71/2 66/71/2 128/72/2
f 105/82/7 127/82/7 122/83/7
f 88/84/2 115/84/2 118/85/2
f 111/32/3 120/32/3 116/86/3
f 83/83/7 122/83/7 126/87/7
f 91/79/3 124/79/3 125/88/3
f 103/85/7 118/85/7 112/90/7
f 114/31/8 113/94/8 116/86/8
f 113/94/8 115/84/8 117/95/8
f 112/90/8 118/85/8 115/84/8
f 119/96/8 112/90/8 113/94/8
f 108/96/1 119/96/1 114/31/1
f 102/95/2 117/95/2 115/84/2
f 80/90/7 112/90/7 119/96/7
f 90/86/3 116/86/3 117/95/3
f 66/71/6 121/97/6 124/79/6
f 121/97/6 123/98/6 125/88/6
f 126/87/6 122/83/6 121/97/6
f 122/83/6 127/82/6 123/98/6
f 89/98/1 123/98/1 127/82/1
f 109/72/3 128/72/3 124/79/3
f 101/88/1 125/88/1 123/98/1
f 104/87/2 126/87/2 66/71/2
usemtl Material.002
f 6/1/1 69/2/1 17/3/1
f 4/4/2 70/5/2 11/6/2
f 41/7/3 33/8/3 68/9/3
f 11/10/4 20/11/4 21/12/4
f 52/13/1 17/3/1 69/2/1
f 17/3/5 14/14/5 21/12/5
f 14/15/4 11/6/4 21/12/4
f 45/16/3 43/17/3 65/18/3
f 46/19/3 47/20/3 64/21/3
f 31/22/3 48/23/3 63/24/3
f 49/25/1 44/26/1 27/27/1
f 50/28/1 51/29/1 61/30/1
f 57/33/2 2/34/2 11/10/2
f 53/35/2 28/36/2 59/37/2
f 54/38/2 55/39/2 58/40/2
f 57/33/2 24/41/2 54/38/2
f 26/42/2 54/38/2 10/43/2
f 58/40/2 9/44/2 25/45/2
f 36/46/2 25/45/2 1/47/2
f 10/43/2 58/40/2 36/46/2
f 59/37/2 3/48/2 35/49/2
f 55/39/2 35/49/2 9/44/2
f 24/41/2 59/37/2 55/39/2
f 60/50/1 23/51/1 50/28/1
f 40/52/1 50/28/1 15/53/1
f 61/30/1 16/54/1 31/22/1
f 30/55/1 31/22/1 7/56/1
f 71/57/1 15/53/1 61/30/1
f 62/58/1 5/59/1 41/7/1
f 51/29/1 41/7/1 16/54/1
f 23/51/1 62/58/1 51/29/1
f 63/24/3 22/60/3 46/19/3
f 39/61/3 46/19/3 13/62/3
f 7/56/3 63/24/3 39/61/3
f 64/21/3 9/63/3 35/64/3
f 29/65/3 35/64/3 3/66/3
f 13/62/3 64/21/3 29/65/3
f 65/18/3 1/67/3 25/68/3
f 47/20/3 25/68/3 9/63/3
f 22/60/3 65/18/3 47/20/3
f 20/69/5 17/3/5 21/12/5
f 60/50/1 8/70/1 17/3/1
f 52/13/1 60/50/1 17/3/1
f 68/9/3 19/73/3 45/16/3
f 48/23/3 45/16/3 22/60/3
f 16/54/3 68/9/3 48/23/3
f 26/42/2 2/74/2 57/33/2
f 69/2/1 18/75/1 49/25/1
f 52/13/1 49/25/1 23/51/1
f 40/52/1 8/70/1 60/50/1
f 42/76/1 69/2/1 6/1/1
f 70/5/2 12/77/2 53/35/2
f 56/78/2 53/35/2 24/41/2
f 109/72/6 91/79/6 39/80/6
f 56/78/2 11/10/2 70/5/2
f 38/81/2 70/5/2 4/4/2
f 56/78/2 57/33/2 11/10/2
f 33/89/8 103/85/8 20/11/8
f 92/91/6 85/92/6 67/93/6
f 44/26/8 81/31/8 99/99/8
f 41/7/3 5/59/3 33/8/3
f 11/10/4 2/100/4 20/11/4
f 17/3/5 8/70/5 14/14/5
f 14/15/4 4/4/4 11/6/4
f 45/16/3 19/73/3 43/17/3
f 46/19/3 22/60/3 47/20/3
f 31/22/3 16/54/3 48/23/3
f 32/101/1 62/58/1 49/25/1
f 49/25/1 18/75/1 37/102/1
f 49/25/1 37/102/1 44/26/1
f 27/27/1 32/101/1 49/25/1
f 50/28/1 23/51/1 51/29/1
f 53/35/2 12/77/2 28/36/2
f 54/38/2 24/41/2 55/39/2
f 57/33/2 56/78/2 24/41/2
f 26/42/2 57/33/2 54/38/2
f 58/40/2 55/39/2 9/44/2
f 36/46/2 58/40/2 25/45/2
f 10/43/2 54/38/2 58/40/2
f 59/37/2 28/36/2 3/48/2
f 55/39/2 59/37/2 35/49/2
f 24/41/2 53/35/2 59/37/2
f 60/50/1 52/13/1 23/51/1
f 40/52/1 60/50/1 50/28/1
f 61/30/1 51/29/1 16/54/1
f 30/55/1 61/30/1 31/22/1
f 61/30/1 30/55/1 34/103/1
f 61/30/1 34/103/1 67/93/1
f 15/53/1 50/28/1 61/30/1
f 61/30/1 67/93/1 71/57/1
f 62/58/1 32/101/1 5/59/1
f 51/29/1 62/58/1 41/7/1
f 23/51/1 49/25/1 62/58/1
f 63/24/3 48/23/3 22/60/3
f 39/61/3 63/24/3 46/19/3
f 7/56/3 31/22/3 63/24/3
f 64/21/3 47/20/3 9/63/3
f 29/65/3 64/21/3 35/64/3
f 13/62/3 46/19/3 64/21/3
f 65/18/3 43/17/3 1/67/3
f 47/20/3 65/18/3 25/68/3
f 22/60/3 45/16/3 65/18/3
f 20/69/5 6/1/5 17/3/5
f 68/9/3 33/8/3 19/73/3
f 48/23/3 68/9/3 45/16/3
f 16/54/3 41/7/3 68/9/3
f 69/2/1 42/76/1 18/75/1
f 52/13/1 69/2/1 49/25/1
f 70/5/2 38/81/2 12/77/2
f 56/78/2 70/5/2 53/35/2
f 38/81/6 4/104/6 14/14/6
f 14/14/6 8/70/6 40/52/6
f 15/53/6 71/57/6 73/105/6
f 14/14/6 40/52/6 15/53/6
f 12/77/6 38/81/6 14/14/6
f 29/106/6 3/48/6 28/36/6
f 28/36/6 12/77/6 14/14/6
f 14/14/6 15/53/6 73/105/6
f 14/14/6 73/105/6 93/107/6
f 29/106/6 28/36/6 14/14/6
f 13/108/6 29/106/6 14/14/6
f 14/14/6 93/107/6 77/109/6
f 77/109/6 85/92/6 106/110/6
f 77/109/6 106/110/6 97/111/6
f 39/80/6 13/108/6 14/14/6
f 30/55/6 7/56/6 39/80/6
f 72/112/6 34/103/6 30/55/6
f 72/112/6 30/55/6 39/80/6
f 14/14/6 77/109/6 97/111/6
f 14/14/6 97/111/6 105/82/6
f 84/113/6 72/112/6 39/80/6
f 110/114/6 92/91/6 76/115/6
f 76/115/6 84/113/6 39/80/6
f 14/14/6 105/82/6 83/83/6
f 14/14/6 83/83/6 104/87/6
f 110/114/6 76/115/6 39/80/6
f 98/116/6 110/114/6 39/80/6
f 39/80/6 14/14/6 104/87/6
f 39/80/6 104/87/6 82/71/6
f 101/88/6 98/116/6 39/80/6
f 91/79/6 101/88/6 39/80/6
f 39/80/6 82/71/6 109/72/6
f 36/117/8 1/118/8 43/119/8
f 36/117/8 43/119/8 19/120/8
f 10/121/8 36/117/8 19/120/8
f 33/89/8 5/59/8 32/101/8
f 10/121/8 19/120/8 33/89/8
f 20/11/8 2/100/8 26/122/8
f 26/122/8 10/121/8 33/89/8
f 33/89/8 32/101/8 27/27/8
f 33/89/8 27/27/8 74/123/8
f 20/11/8 26/122/8 33/89/8
f 42/76/8 6/1/8 20/11/8
f 75/124/8 37/102/8 18/75/8
f 18/75/8 42/76/8 20/11/8
f 33/89/8 74/123/8 86/125/8
f 78/126/8 94/127/8 100/128/8
f 33/89/8 86/125/8 78/126/8
f 75/124/8 18/75/8 20/11/8
f 95/129/8 75/124/8 20/11/8
f 33/89/8 78/126/8 100/128/8
f 33/89/8 100/128/8 99/99/8
f 79/130/8 95/129/8 20/11/8
f 107/131/8 87/132/8 79/130/8
f 96/133/8 107/131/8 79/130/8
f 33/89/8 99/99/8 111/32/8
f 33/89/8 111/32/8 90/86/8
f 96/133/8 79/130/8 20/11/8
f 108/96/8 96/133/8 20/11/8
f 33/89/8 90/86/8 102/95/8
f 33/89/8 102/95/8 88/84/8
f 80/90/8 108/96/8 20/11/8
f 33/89/8 88/84/8 103/85/8
f 103/85/8 80/90/8 20/11/8
f 98/116/6 101/88/6 89/98/6
f 89/98/6 105/82/6 97/111/6
f 89/98/6 97/111/6 106/110/6
f 110/114/6 98/116/6 89/98/6
f 92/91/6 110/114/6 89/98/6
f 89/98/6 106/110/6 85/92/6
f 92/91/6 89/98/6 85/92/6
f 93/107/6 73/105/6 71/57/6
f 67/93/6 34/103/6 72/112/6
f 93/107/6 71/57/6 67/93/6
f 77/109/6 93/107/6 67/93/6
f 67/93/6 72/112/6 84/113/6
f 67/93/6 84/113/6 76/115/6
f 85/92/6 77/109/6 67/93/6
f 67/93/6 76/115/6 92/91/6
f 74/123/8 27/27/8 44/26/8
f 44/26/8 37/102/8 75/124/8
f 44/26/8 75/124/8 95/129/8
f 86/125/8 74/123/8 44/26/8
f 78/126/8 86/125/8 44/26/8
f 44/26/8 95/129/8 79/130/8
f 44/26/8 79/130/8 87/132/8
f 94/127/8 78/126/8 44/26/8
f 100/128/8 94/127/8 44/26/8
f 44/26/8 87/132/8 107/131/8
f 96/133/8 108/96/8 81/31/8
f 44/26/8 107/131/8 96/133/8
f 99/99/8 100/128/8 44/26/8
f 81/31/8 111/32/8 99/99/8
f 44/26/8 96/133/8 81/31/8
